<svg xmlns="http://www.w3.org/2000/svg" width="100" height="125" style=""><rect id="backgroundrect" width="100%" height="100%" x="0" y="0" fill="none" stroke="none"/>
 <title>Artboard 1 Copy 103</title>

 <desc>Created with Sketch.</desc>
 <g style="">
  <title>background</title>
  <rect fill="none" id="canvas_background" height="602" width="802" y="-1" x="-1"/>
 </g>
 <g style="" class="currentLayer">
  <title>Layer 1</title>
  <g id="svg_1" fill-rule="evenodd" fill="#ffffff" class="" fill-opacity="1">
   <g id="svg_2" fill="#ffffff" fill-opacity="1">
    <path id="svg_3" d="m27.994346928411062,27.959481193162937 l0,0 l0,39.577604072948894 c0,12.167452769183104 9.850235675970021,22.02193553586442 22.00565135386256,22.02193553586442 c12.154799519654631,0 22.00565135386256,-9.857761608733043 22.00565135386256,-22.02193553586442 l0,-39.577604072948894 c0,-12.167452769183104 -9.850235675970021,-22.02193553586442 -22.00565135386256,-22.02193553586442 c-12.154799519654631,0 -22.00565135386256,9.857761608733043 -22.00565135386256,22.02193553586442 l0,0 zm-4.401130270772512,0 c0,-14.593047695313958 11.81952141562718,-26.42306580663693 26.406781624635073,-26.42306580663693 c14.58406938956158,0 26.406781624635073,11.82293229158703 26.406781624635073,26.42306580663693 l0,39.577604072948894 c0,14.593047695313958 -11.81952141562718,26.42306580663693 -26.406781624635073,26.42306580663693 c-14.58406938956158,0 -26.406781624635073,-11.82293229158703 -26.406781624635073,-26.42306580663693 l0,-39.577604072948894 l0,0 z" fill="#ffffff" fill-opacity="1"/>
    <path id="svg_4" d="m47.79943314688737,16.940371334229788 l0,8.802260541545024 c0,1.2153281129711213 0.9852370224151347,2.200565135386256 2.200565135386256,2.200565135386256 c1.2153281129711213,0 2.200565135386256,-0.9852370224151347 2.200565135386256,-2.200565135386256 l0,-8.802260541545024 c0,-1.2153281129711213 -0.9852370224151347,-2.200565135386256 -2.200565135386256,-2.200565135386256 c-1.2153281129711213,0 -2.200565135386256,0.9852370224151347 -2.200565135386256,2.200565135386256 l0,0 z" fill="#ffffff" fill-opacity="1"/>
    <path id="svg_5" d="m49.99999828227362,118.15094160039848 l12.102756154202748,-12.102734148551395 c0.8593646966710417,-0.8593867023223947 2.2526965234435568,-0.8593867023223947 3.112061220114597,0 c0.8593867023223947,0.8593646966710417 0.8593867023223947,2.2526965234435568 0,3.112061220114597 l-13.658775761434368,13.658775761434368 c-0.42970435398687484,0.42970435398687484 -0.9928729834349245,0.6445455281546348 -1.5560416128829766,0.6445455281546348 c-0.5631686294480502,0 -1.1263372588961014,-0.21484117416776063 -1.5560416128829766,-0.6445455281546348 l-13.763456644924691,-13.763456644924691 c-0.8593867023223947,-0.8593646966710417 -0.8593867023223947,-2.2526965234435568 0,-3.112061220114597 c0.8593646966710417,-0.8593867023223947 2.2526965234435568,-0.8593867023223947 3.112061220114597,0 l12.207437037693072,12.207415032041718 z" fill="#ffffff" fill-opacity="1"/>
   </g>
  </g>
  
  
 </g>
</svg>